<mxfile host="Electron" modified="2023-12-12T19:42:46.513Z" agent="Mozilla/5.0 (X11; Linux x86_64) AppleWebKit/537.36 (KHTML, like Gecko) draw.io/22.1.2 Chrome/114.0.5735.289 Electron/25.9.4 Safari/537.36" etag="rhvmFmShd3tslD2NNGMA" version="22.1.2" type="device">
  <diagram name="Page-1" id="2x5f0suGaUD4aXQcTOwI">
    <mxGraphModel dx="1434" dy="783" grid="1" gridSize="10" guides="1" tooltips="1" connect="1" arrows="1" fold="1" page="1" pageScale="1" pageWidth="827" pageHeight="1169" math="0" shadow="0">
      <root>
        <mxCell id="0" />
        <mxCell id="1" parent="0" />
        <mxCell id="uJj61glsNV7FLqCT52iT-1" value="&lt;font style=&quot;font-size: 14px;&quot;&gt;ANTI RAGGING CELL&lt;/font&gt;" style="swimlane;whiteSpace=wrap;html=1;" parent="1" vertex="1">
          <mxGeometry x="210.76923076923072" y="120" width="398.4615384615384" height="920.0000000000001" as="geometry">
            <mxRectangle x="314" y="150" width="160" height="30" as="alternateBounds" />
          </mxGeometry>
        </mxCell>
        <mxCell id="uJj61glsNV7FLqCT52iT-37" value="&lt;font style=&quot;font-size: 18px;&quot;&gt;Register Complaint&lt;/font&gt;" style="ellipse;whiteSpace=wrap;html=1;" parent="uJj61glsNV7FLqCT52iT-1" vertex="1">
          <mxGeometry x="28.461538461538456" y="85.18518518518519" width="341.53846153846143" height="85.18518518518519" as="geometry" />
        </mxCell>
        <mxCell id="uJj61glsNV7FLqCT52iT-38" value="&lt;font style=&quot;font-size: 18px;&quot;&gt;Track Complaint&amp;nbsp;&lt;/font&gt;" style="ellipse;whiteSpace=wrap;html=1;" parent="uJj61glsNV7FLqCT52iT-1" vertex="1">
          <mxGeometry x="28.461538461538456" y="204.44444444444446" width="341.53846153846143" height="85.18518518518519" as="geometry" />
        </mxCell>
        <mxCell id="uJj61glsNV7FLqCT52iT-40" value="&lt;font style=&quot;font-size: 18px;&quot;&gt;Response Complaint&lt;/font&gt;" style="ellipse;whiteSpace=wrap;html=1;" parent="uJj61glsNV7FLqCT52iT-1" vertex="1">
          <mxGeometry x="28.461538461538456" y="323.7037037037037" width="341.53846153846143" height="85.18518518518519" as="geometry" />
        </mxCell>
        <mxCell id="uJj61glsNV7FLqCT52iT-41" value="&lt;font style=&quot;font-size: 18px;&quot;&gt;Notification&lt;/font&gt;" style="ellipse;whiteSpace=wrap;html=1;" parent="uJj61glsNV7FLqCT52iT-1" vertex="1">
          <mxGeometry x="28.461538461538456" y="442.96296296296293" width="341.53846153846143" height="85.18518518518519" as="geometry" />
        </mxCell>
        <mxCell id="uJj61glsNV7FLqCT52iT-42" value="&lt;font style=&quot;font-size: 18px;&quot;&gt;Login&lt;/font&gt;" style="ellipse;whiteSpace=wrap;html=1;" parent="uJj61glsNV7FLqCT52iT-1" vertex="1">
          <mxGeometry x="28.461538461538456" y="562.2222222222222" width="341.53846153846143" height="85.18518518518519" as="geometry" />
        </mxCell>
        <mxCell id="uJj61glsNV7FLqCT52iT-44" value="&lt;font style=&quot;font-size: 18px;&quot;&gt;Manage Squad&lt;/font&gt;" style="ellipse;whiteSpace=wrap;html=1;" parent="uJj61glsNV7FLqCT52iT-1" vertex="1">
          <mxGeometry x="28.461538461538456" y="681.4814814814815" width="341.53846153846143" height="85.18518518518519" as="geometry" />
        </mxCell>
        <mxCell id="uJj61glsNV7FLqCT52iT-97" value="&lt;font style=&quot;font-size: 18px;&quot;&gt;Report&lt;/font&gt;" style="ellipse;whiteSpace=wrap;html=1;" parent="uJj61glsNV7FLqCT52iT-1" vertex="1">
          <mxGeometry x="28.461538461538456" y="792.2222222222222" width="341.53846153846143" height="85.18518518518519" as="geometry" />
        </mxCell>
        <mxCell id="uJj61glsNV7FLqCT52iT-49" value="&lt;font style=&quot;font-size: 24px;&quot;&gt;Squad&lt;/font&gt;" style="shape=umlActor;verticalLabelPosition=bottom;verticalAlign=top;html=1;" parent="1" vertex="1">
          <mxGeometry x="723.0769230769229" y="528.8888888888889" width="56.92307692307691" height="136.2962962962963" as="geometry" />
        </mxCell>
        <mxCell id="uJj61glsNV7FLqCT52iT-52" value="&lt;font style=&quot;font-size: 24px;&quot;&gt;Admin&lt;/font&gt;" style="shape=umlActor;verticalLabelPosition=bottom;verticalAlign=top;html=1;" parent="1" vertex="1">
          <mxGeometry x="723.0769230769229" y="801.4814814814815" width="56.92307692307691" height="136.2962962962963" as="geometry" />
        </mxCell>
        <mxCell id="uJj61glsNV7FLqCT52iT-53" value="&lt;font style=&quot;font-size: 24px;&quot;&gt;Victim&lt;/font&gt;" style="shape=umlActor;verticalLabelPosition=bottom;verticalAlign=top;html=1;" parent="1" vertex="1">
          <mxGeometry x="40" y="324.44444444444446" width="56.92307692307691" height="136.2962962962963" as="geometry" />
        </mxCell>
        <mxCell id="uJj61glsNV7FLqCT52iT-66" value="" style="edgeStyle=none;orthogonalLoop=1;jettySize=auto;html=1;rounded=0;exitX=1;exitY=0.3333333333333333;exitDx=0;exitDy=0;exitPerimeter=0;entryX=0;entryY=0.5;entryDx=0;entryDy=0;" parent="1" source="uJj61glsNV7FLqCT52iT-53" target="uJj61glsNV7FLqCT52iT-37" edge="1">
          <mxGeometry width="100" relative="1" as="geometry">
            <mxPoint x="68.46153846153845" y="375.55555555555554" as="sourcePoint" />
            <mxPoint x="210.76923076923072" y="375.55555555555554" as="targetPoint" />
            <Array as="points" />
          </mxGeometry>
        </mxCell>
        <mxCell id="uJj61glsNV7FLqCT52iT-67" value="" style="edgeStyle=none;orthogonalLoop=1;jettySize=auto;html=1;rounded=0;exitX=1;exitY=0.3333333333333333;exitDx=0;exitDy=0;exitPerimeter=0;entryX=0;entryY=0.5;entryDx=0;entryDy=0;" parent="1" source="uJj61glsNV7FLqCT52iT-53" target="uJj61glsNV7FLqCT52iT-38" edge="1">
          <mxGeometry width="100" relative="1" as="geometry">
            <mxPoint x="54.230769230769226" y="409.6296296296297" as="sourcePoint" />
            <mxPoint x="196.53846153846152" y="409.6296296296297" as="targetPoint" />
            <Array as="points" />
          </mxGeometry>
        </mxCell>
        <mxCell id="uJj61glsNV7FLqCT52iT-71" value="" style="edgeStyle=none;orthogonalLoop=1;jettySize=auto;html=1;rounded=0;exitX=0;exitY=0.3333333333333333;exitDx=0;exitDy=0;exitPerimeter=0;entryX=1;entryY=0.5;entryDx=0;entryDy=0;" parent="1" source="uJj61glsNV7FLqCT52iT-49" target="uJj61glsNV7FLqCT52iT-40" edge="1">
          <mxGeometry width="100" relative="1" as="geometry">
            <mxPoint x="609.2307692307692" y="409.6296296296297" as="sourcePoint" />
            <mxPoint x="751.5384615384614" y="409.6296296296297" as="targetPoint" />
            <Array as="points" />
          </mxGeometry>
        </mxCell>
        <mxCell id="uJj61glsNV7FLqCT52iT-72" value="" style="edgeStyle=none;orthogonalLoop=1;jettySize=auto;html=1;rounded=0;entryX=1;entryY=0.5;entryDx=0;entryDy=0;exitX=0;exitY=0.3333333333333333;exitDx=0;exitDy=0;exitPerimeter=0;" parent="1" source="uJj61glsNV7FLqCT52iT-49" target="uJj61glsNV7FLqCT52iT-41" edge="1">
          <mxGeometry width="100" relative="1" as="geometry">
            <mxPoint x="794.230769230769" y="614.0740740740741" as="sourcePoint" />
            <mxPoint x="780" y="562.9629629629629" as="targetPoint" />
            <Array as="points" />
          </mxGeometry>
        </mxCell>
        <mxCell id="uJj61glsNV7FLqCT52iT-75" value="" style="edgeStyle=none;orthogonalLoop=1;jettySize=auto;html=1;rounded=0;exitX=0;exitY=0.3333333333333333;exitDx=0;exitDy=0;exitPerimeter=0;entryX=1;entryY=0.5;entryDx=0;entryDy=0;" parent="1" source="uJj61glsNV7FLqCT52iT-52" target="uJj61glsNV7FLqCT52iT-44" edge="1">
          <mxGeometry width="100" relative="1" as="geometry">
            <mxPoint x="580.7692307692307" y="1091.1111111111113" as="sourcePoint" />
            <mxPoint x="723.0769230769229" y="1091.1111111111113" as="targetPoint" />
            <Array as="points" />
          </mxGeometry>
        </mxCell>
        <mxCell id="uJj61glsNV7FLqCT52iT-76" value="" style="edgeStyle=none;orthogonalLoop=1;jettySize=auto;html=1;rounded=0;exitX=0;exitY=0.3333333333333333;exitDx=0;exitDy=0;exitPerimeter=0;entryX=1;entryY=0.5;entryDx=0;entryDy=0;" parent="1" source="uJj61glsNV7FLqCT52iT-52" target="uJj61glsNV7FLqCT52iT-97" edge="1">
          <mxGeometry width="100" relative="1" as="geometry">
            <mxPoint x="580.7692307692307" y="1108.1481481481483" as="sourcePoint" />
            <mxPoint x="723.0769230769229" y="1108.1481481481483" as="targetPoint" />
            <Array as="points" />
          </mxGeometry>
        </mxCell>
        <mxCell id="uJj61glsNV7FLqCT52iT-84" value="" style="edgeStyle=none;orthogonalLoop=1;jettySize=auto;html=1;rounded=0;exitX=1;exitY=0.3333333333333333;exitDx=0;exitDy=0;exitPerimeter=0;entryX=0;entryY=0.5;entryDx=0;entryDy=0;" parent="1" source="uJj61glsNV7FLqCT52iT-53" target="uJj61glsNV7FLqCT52iT-40" edge="1">
          <mxGeometry width="100" relative="1" as="geometry">
            <mxPoint x="-31.153846153846146" y="494.8148148148148" as="sourcePoint" />
            <mxPoint x="239.2307692307692" y="963.3333333333333" as="targetPoint" />
            <Array as="points" />
          </mxGeometry>
        </mxCell>
        <mxCell id="uJj61glsNV7FLqCT52iT-103" value="" style="edgeStyle=none;orthogonalLoop=1;jettySize=auto;html=1;rounded=0;exitX=0;exitY=0.3333333333333333;exitDx=0;exitDy=0;exitPerimeter=0;entryX=1;entryY=0.5;entryDx=0;entryDy=0;" parent="1" source="uJj61glsNV7FLqCT52iT-49" target="uJj61glsNV7FLqCT52iT-42" edge="1">
          <mxGeometry width="100" relative="1" as="geometry">
            <mxPoint x="609.2307692307692" y="818.5185185185186" as="sourcePoint" />
            <mxPoint x="751.5384615384614" y="818.5185185185186" as="targetPoint" />
            <Array as="points" />
          </mxGeometry>
        </mxCell>
        <mxCell id="uJj61glsNV7FLqCT52iT-104" value="" style="edgeStyle=none;orthogonalLoop=1;jettySize=auto;html=1;rounded=0;exitX=0;exitY=0.3333333333333333;exitDx=0;exitDy=0;exitPerimeter=0;entryX=1;entryY=0.5;entryDx=0;entryDy=0;" parent="1" source="uJj61glsNV7FLqCT52iT-52" target="uJj61glsNV7FLqCT52iT-42" edge="1">
          <mxGeometry width="100" relative="1" as="geometry">
            <mxPoint x="708.8461538461537" y="988.8888888888889" as="sourcePoint" />
            <mxPoint x="765.7692307692306" y="1005.9259259259259" as="targetPoint" />
            <Array as="points" />
          </mxGeometry>
        </mxCell>
        <mxCell id="KzF1qiZK4NnwbI1Tx7vy-5" value="" style="edgeStyle=none;orthogonalLoop=1;jettySize=auto;html=1;rounded=0;exitX=1;exitY=0.3333333333333333;exitDx=0;exitDy=0;exitPerimeter=0;entryX=0;entryY=0.5;entryDx=0;entryDy=0;" parent="1" source="uJj61glsNV7FLqCT52iT-53" target="uJj61glsNV7FLqCT52iT-41" edge="1">
          <mxGeometry width="100" relative="1" as="geometry">
            <mxPoint x="111.15384615384615" y="409.6296296296297" as="sourcePoint" />
            <mxPoint x="210.76923076923072" y="631.1111111111111" as="targetPoint" />
            <Array as="points" />
          </mxGeometry>
        </mxCell>
      </root>
    </mxGraphModel>
  </diagram>
</mxfile>
